<?xml version="1.0" standalone="no"?>
<!DOCTYPE svg PUBLIC "-//W3C//DTD SVG 20010904//EN"
 "http://www.w3.org/TR/2001/REC-SVG-20010904/DTD/svg10.dtd">
<svg version="1.0" xmlns="http://www.w3.org/2000/svg"
 width="512.000000pt" height="512.000000pt" viewBox="0 0 512.000000 512.000000"
 preserveAspectRatio="xMidYMid meet">

<g transform="translate(0.000000,512.000000) scale(0.100000,-0.100000)"
fill="#000000" stroke="none">
<path d="M2346 5098 c-18 -17 -59 -114 -151 -359 -69 -184 -125 -349 -125
-365 1 -76 96 -106 141 -44 10 14 75 177 144 362 134 360 136 370 88 408 -34
26 -66 25 -97 -2z"/>
<path d="M2683 4538 c-184 -183 -343 -348 -354 -365 -38 -61 -3 -123 70 -123
33 0 59 23 374 338 186 185 345 350 354 366 28 54 -12 116 -76 116 -32 0 -58
-23 -368 -332z"/>
<path d="M2525 4778 c-54 -29 -57 -67 -13 -150 48 -89 98 -109 149 -59 36 36
36 57 3 123 -45 89 -87 115 -139 86z"/>
<path d="M1679 4681 c-16 -16 -29 -36 -29 -44 0 -33 88 -368 103 -391 23 -35
72 -43 106 -19 49 37 49 56 -2 255 -39 149 -52 187 -73 206 -34 30 -70 28
-105 -7z"/>
<path d="M3082 4597 c-31 -33 -28 -64 19 -207 54 -165 89 -201 158 -165 54 27
54 62 0 222 -22 67 -49 133 -60 147 -27 35 -86 36 -117 3z"/>
<path d="M2797 4276 c-10 -8 -22 -28 -27 -45 -7 -26 -3 -41 21 -88 37 -71 62
-93 103 -93 41 0 77 36 78 78 1 34 -55 137 -82 152 -26 14 -72 12 -93 -4z"/>
<path d="M1443 4120 c-30 -12 -35 -23 -189 -413 -358 -902 -368 -930 -405
-1144 -20 -121 -27 -332 -14 -429 25 -182 93 -326 202 -429 l55 -53 -141 -548
c-78 -301 -144 -551 -149 -555 -4 -4 -99 -24 -212 -43 -113 -20 -215 -41 -227
-47 -48 -25 -54 -105 -10 -134 25 -16 1076 -325 1106 -325 10 0 30 9 45 21 20
16 26 29 26 61 0 39 -5 45 -161 197 l-161 156 126 495 c175 683 152 609 195
615 129 20 230 73 337 180 120 118 209 266 281 465 71 197 81 257 203 1212 29
225 49 419 46 433 -4 14 -17 32 -30 41 -22 14 -868 255 -891 253 -5 0 -20 -4
-32 -9z m445 -274 c183 -51 334 -95 336 -97 3 -2 -13 -139 -34 -304 -22 -165
-40 -308 -40 -317 0 -13 -18 -23 -67 -37 -155 -45 -245 -36 -398 40 -55 27
-127 56 -160 64 -66 17 -189 19 -250 5 -22 -5 -41 -8 -42 -6 -2 2 63 170 144
375 105 266 151 371 163 371 8 0 165 -42 348 -94z m-273 -865 c55 -28 127 -57
160 -66 72 -18 186 -19 278 -1 63 12 67 12 67 -5 0 -54 -54 -407 -75 -491 -85
-333 -240 -581 -421 -673 -55 -28 -66 -30 -169 -29 -97 0 -118 3 -179 29 -81
33 -170 111 -208 182 -90 165 -101 450 -28 740 32 126 96 307 113 321 23 18
118 44 185 51 106 10 165 -2 277 -58z m-319 -1417 c13 -3 24 -11 24 -17 0 -5
-60 -245 -134 -531 -73 -287 -137 -535 -140 -553 -12 -53 11 -110 62 -161 31
-30 40 -44 27 -40 -11 3 -95 27 -187 53 -155 45 -190 64 -117 65 30 0 84 34
111 70 11 15 76 250 160 578 111 434 145 552 156 547 8 -3 25 -8 38 -11z"/>
<path d="M1870 2722 c-17 -13 -27 -45 -46 -142 -55 -274 -166 -508 -279 -589
-33 -23 -47 -26 -116 -26 -85 0 -113 -13 -124 -58 -17 -66 40 -107 148 -107
158 0 276 96 390 318 76 147 157 423 157 537 0 70 -77 110 -130 67z"/>
<path d="M3205 4009 c-465 -130 -475 -134 -475 -200 0 -38 145 -1172 165
-1294 38 -225 131 -473 241 -642 52 -80 198 -223 264 -260 56 -31 136 -58 203
-68 20 -3 37 -9 37 -12 0 -3 63 -251 141 -552 l141 -546 -155 -150 c-86 -82
-160 -160 -166 -172 -7 -13 -9 -34 -5 -48 7 -29 48 -65 75 -65 30 0 1081 309
1106 325 45 30 38 110 -13 133 -13 6 -117 28 -231 48 -115 20 -209 37 -210 38
0 1 -65 250 -144 554 l-142 553 66 65 c50 50 77 88 111 158 69 142 81 207 81
436 -1 173 -4 209 -28 321 -14 69 -41 167 -58 219 -49 146 -486 1242 -501
1256 -31 32 -73 24 -503 -97z m547 -441 c81 -204 146 -373 145 -375 -2 -1 -19
2 -38 7 -50 15 -185 12 -257 -5 -34 -8 -108 -37 -165 -65 -56 -28 -125 -54
-152 -58 -96 -16 -305 20 -305 51 0 7 -18 149 -40 317 -21 167 -37 306 -34
309 7 8 656 189 679 190 17 1 41 -52 167 -371z m168 -555 c63 -23 68 -29 123
-190 90 -259 119 -556 72 -751 -37 -155 -132 -274 -260 -327 -62 -26 -82 -29
-180 -29 -102 -1 -114 1 -170 28 -189 93 -364 389 -435 737 -21 103 -66 437
-59 443 2 2 33 -2 69 -10 79 -16 180 -18 252 -3 29 6 103 35 163 64 61 29 119
56 130 59 47 12 241 -2 295 -21z m105 -1980 c85 -333 148 -558 160 -577 26
-39 81 -76 114 -76 73 -1 38 -20 -117 -64 -92 -27 -176 -51 -187 -54 -14 -3
-6 9 25 39 54 53 70 98 60 165 -5 27 -67 277 -139 557 -72 279 -131 513 -131
521 0 10 35 28 70 35 3 1 68 -245 145 -546z"/>
<path d="M3825 2918 c-55 -30 -56 -55 -10 -195 65 -193 92 -441 64 -575 -12
-56 -33 -100 -75 -158 -44 -60 -11 -130 61 -130 39 0 89 46 129 120 94 173 77
533 -41 853 -19 51 -33 72 -54 82 -33 18 -47 18 -74 3z"/>
</g>
</svg>
