<?xml version="1.0" standalone="no"?>
<!DOCTYPE svg PUBLIC "-//W3C//DTD SVG 20010904//EN"
 "http://www.w3.org/TR/2001/REC-SVG-20010904/DTD/svg10.dtd">
<svg version="1.0" xmlns="http://www.w3.org/2000/svg"
 width="512.000000pt" height="512.000000pt" viewBox="0 0 512.000000 512.000000"
 preserveAspectRatio="xMidYMid meet">

<g transform="translate(0.000000,512.000000) scale(0.100000,-0.100000)"
fill="#000000" stroke="none">
<path d="M1242 4760 c-73 -49 -175 -157 -221 -233 -18 -31 -47 -96 -64 -144
-42 -122 -49 -289 -18 -413 63 -254 243 -450 494 -537 98 -34 290 -43 400 -19
140 31 311 132 395 234 92 112 111 162 74 195 -24 22 -57 21 -111 -3 -118 -54
-296 -69 -421 -37 -179 47 -324 163 -398 318 -46 96 -60 149 -68 251 -7 88 14
205 51 285 31 69 32 107 3 127 -33 24 -50 20 -116 -24z m-67 -302 c-14 -128
32 -318 106 -445 19 -32 72 -96 119 -143 146 -146 309 -211 533 -211 117 0
119 0 95 -18 -41 -32 -143 -79 -209 -96 -77 -20 -202 -23 -284 -6 -228 47
-419 238 -471 467 -21 97 -15 241 15 334 18 58 85 180 98 180 2 0 2 -28 -2
-62z"/>
<path d="M3033 3088 c-18 -21 -26 -78 -77 -603 -31 -319 -60 -597 -64 -617
l-7 -37 -60 51 c-145 122 -357 240 -509 284 l-63 18 -5 121 c-7 151 -27 204
-104 274 -126 115 -312 115 -438 0 -78 -71 -98 -124 -104 -274 l-4 -120 -77
-23 c-278 -86 -556 -300 -734 -565 -127 -191 -223 -445 -242 -642 -10 -114
-14 -125 -39 -125 -77 0 -178 -74 -212 -155 -18 -45 -18 -153 1 -198 23 -55
74 -108 130 -133 l50 -24 1968 0 c1258 0 1975 4 1987 10 35 19 33 88 -4 112
-6 4 -120 8 -253 8 l-243 0 0 234 0 234 28 6 c15 2 50 8 77 11 114 15 284 84
405 164 75 49 194 163 246 237 103 144 154 303 154 473 -1 58 -27 367 -59 685
-56 553 -60 581 -81 598 -21 17 -65 18 -834 18 l-813 0 -20 -22z m1571 -130
c9 -40 50 -488 45 -492 -2 -2 -65 -19 -139 -36 -178 -43 -252 -42 -425 0 -176
44 -256 44 -435 0 -175 -43 -234 -43 -422 0 -135 31 -147 36 -143 55 2 11 14
127 26 258 l22 237 734 0 733 0 4 -22z m-2627 -429 c60 -16 117 -70 132 -127
7 -23 11 -75 9 -114 l-3 -72 -55 4 c-30 3 -91 5 -135 5 -44 0 -105 -2 -135 -5
l-55 -4 -3 72 c-2 39 2 91 9 114 18 70 97 131 177 137 7 1 34 -4 59 -10z
m2108 -231 c173 -41 254 -41 438 2 76 18 139 31 141 29 9 -9 46 -433 46 -521
0 -310 -219 -589 -555 -707 -264 -94 -570 -53 -790 104 -166 118 -311 347
-336 532 -9 65 -7 119 14 331 14 140 28 256 31 259 3 3 67 -9 143 -27 182 -43
263 -43 438 -2 72 17 144 33 160 35 51 8 134 -3 270 -35z m-1937 -223 c171
-33 352 -112 505 -223 84 -60 277 -253 277 -276 0 -24 97 -209 138 -262 58
-75 113 -252 128 -411 l7 -73 -1272 0 -1272 0 5 33 c3 17 8 57 11 87 8 76 52
241 87 325 69 168 156 302 283 434 211 221 460 345 775 385 62 8 242 -3 328
-19z m1212 -1016 c103 -63 212 -99 418 -135 l22 -4 0 -235 0 -235 -121 0
c-109 0 -121 2 -115 17 4 9 11 37 17 61 29 131 -72 281 -201 298 l-47 6 -12
102 c-7 55 -15 113 -18 129 -3 15 -3 27 1 27 3 0 28 -14 56 -31z m49 -385 c58
-48 60 -143 5 -195 l-26 -24 -1459 0 -1459 0 -25 26 c-52 51 -49 143 4 191
l31 28 1449 0 1449 0 31 -26z"/>
<path d="M1720 1880 c-102 -21 -203 -59 -287 -106 -73 -40 -200 -139 -231
-179 -41 -52 -18 -115 41 -115 19 0 48 19 98 65 148 136 361 225 541 225 49 0
86 13 100 34 14 20 8 63 -10 79 -25 23 -140 21 -252 -3z"/>
</g>
</svg>
