<?xml version="1.0" standalone="no"?>
<!DOCTYPE svg PUBLIC "-//W3C//DTD SVG 20010904//EN"
 "http://www.w3.org/TR/2001/REC-SVG-20010904/DTD/svg10.dtd">
<svg version="1.0" xmlns="http://www.w3.org/2000/svg"
 width="512.000000pt" height="512.000000pt" viewBox="0 0 512.000000 512.000000"
 preserveAspectRatio="xMidYMid meet">

<g transform="translate(0.000000,512.000000) scale(0.100000,-0.100000)"
fill="#000000" stroke="none">
<path d="M2500 4736 l0 -384 -67 -7 c-440 -40 -820 -191 -1143 -452 -98 -79
-270 -258 -343 -355 -377 -505 -505 -1143 -351 -1750 147 -581 544 -1069 1087
-1334 628 -306 1372 -272 1965 89 379 232 684 593 846 1005 332 845 57 1833
-664 2379 -327 247 -653 371 -1102 418 l-58 6 0 385 0 384 -85 0 -85 0 0 -384z
m125 -587 c71 -86 140 -287 195 -574 11 -60 23 -122 26 -137 l6 -28 -267 0
-267 0 7 48 c28 196 98 460 153 583 31 69 85 139 107 139 7 0 25 -14 40 -31z
m390 -97 c108 -64 299 -253 384 -381 54 -81 141 -239 141 -256 0 -3 -116 -5
-259 -5 l-258 0 -17 113 c-29 187 -98 431 -171 600 -7 16 -3 16 46 -3 30 -12
90 -42 134 -68z m-690 61 c-72 -176 -126 -369 -159 -563 l-23 -135 -262 -3
-261 -2 36 72 c141 281 358 510 584 617 75 36 95 39 85 14z m-571 -180 c-99
-115 -201 -270 -270 -410 l-56 -113 -179 0 c-141 0 -179 3 -173 13 4 6 31 42
60 78 104 128 291 294 434 384 54 35 242 134 253 135 4 0 -27 -39 -69 -87z
m1668 51 c237 -120 479 -316 631 -512 l48 -62 -183 0 -183 0 -57 118 c-63 132
-148 264 -235 366 -91 106 -106 126 -99 126 4 0 39 -16 78 -36z m-2062 -754
c0 -6 -13 -55 -29 -109 -56 -186 -104 -476 -113 -681 l-3 -55 -252 -3 -253 -2
0 54 c0 30 9 107 20 173 34 199 86 358 177 541 l46 92 204 0 c133 0 203 -4
203 -10z m756 -37 c-13 -104 -35 -429 -42 -615 l-7 -198 -340 0 -340 0 6 109
c9 146 31 299 68 451 26 109 73 270 86 293 2 4 133 7 290 7 l286 0 -7 -47z
m758 10 c15 -93 37 -397 43 -601 l6 -222 -339 2 -339 3 3 160 c3 171 14 361
33 568 l12 127 288 0 287 0 6 -37z m776 -60 c40 -125 65 -229 90 -373 22 -132
44 -366 35 -380 -4 -6 -135 -10 -340 -10 l-335 0 -4 23 c-3 12 -7 121 -11 242
-3 121 -10 265 -15 320 -5 55 -12 139 -16 188 l-7 87 286 0 286 0 31 -97z
m621 -19 c94 -191 167 -450 185 -661 l7 -83 -256 0 -255 0 -7 103 c-14 220
-72 537 -126 696 -11 30 -19 56 -19 58 0 2 93 2 208 1 l207 -3 56 -111z
m-3051 -971 c0 -159 51 -471 110 -673 16 -58 30 -108 30 -112 0 -5 -92 -8
-204 -8 l-205 0 -55 113 c-97 196 -168 453 -183 655 l-6 82 257 0 256 0 0 -57z
m854 -135 c7 -176 26 -456 42 -601 l7 -57 -289 2 -288 3 -39 120 c-61 193
-117 513 -117 672 l0 53 339 0 338 0 7 -192z m843 -25 c-6 -199 -29 -521 -42
-600 l-6 -33 -288 0 -288 0 -12 128 c-17 187 -29 376 -36 560 l-6 162 342 0
342 0 -6 -217z m858 130 c-17 -234 -58 -454 -121 -653 l-35 -110 -286 0 -286
0 7 78 c21 230 35 483 36 604 0 75 3 143 6 152 5 14 45 16 346 16 l340 0 -7
-87z m685 57 c0 -57 -31 -253 -55 -343 -33 -130 -68 -224 -133 -359 l-55 -118
-209 0 c-114 0 -208 2 -208 4 0 2 7 23 16 47 53 151 113 476 129 702 l7 97
254 0 254 0 0 -30z m-2977 -1102 c83 -171 198 -339 316 -461 l46 -49 -55 25
c-162 71 -354 203 -503 347 -93 89 -185 193 -211 238 -6 9 31 12 172 12 l180
0 55 -112z m670 47 c23 -175 76 -382 144 -563 19 -52 33 -96 30 -98 -2 -2 -44
16 -93 40 -233 113 -433 326 -579 616 l-35 70 262 -2 263 -3 8 -60z m693 38
c-3 -16 -13 -68 -22 -118 -50 -283 -139 -539 -210 -606 -19 -18 -28 -20 -46
-12 -54 25 -135 215 -188 438 -27 113 -60 285 -60 313 0 9 60 12 266 12 l266
0 -6 -27z m694 15 c0 -16 -92 -177 -150 -263 -130 -191 -297 -339 -477 -422
-41 -19 -76 -33 -78 -31 -1 2 15 49 37 106 54 144 104 330 130 488 l22 134
258 0 c194 0 258 -3 258 -12z m549 -5 c-191 -248 -399 -422 -662 -555 l-99
-49 77 88 c104 120 205 272 273 414 l57 118 184 1 c173 0 183 -1 170 -17z"/>
<path d="M1647 2723 c-4 -3 -7 -42 -7 -85 l0 -78 85 0 85 0 0 85 0 85 -78 0
c-43 0 -82 -3 -85 -7z"/>
<path d="M3440 1955 l0 -85 85 0 85 0 0 85 0 85 -85 0 -85 0 0 -85z"/>
<path d="M4563 4967 l-103 -52 0 -172 0 -173 -60 -30 -60 -30 36 -73 c20 -39
38 -73 39 -75 1 -2 50 21 109 50 l106 53 0 172 0 173 64 32 64 31 -36 74 c-20
40 -41 73 -47 72 -5 0 -56 -23 -112 -52z"/>
<path d="M633 4563 l-273 -56 0 -223 0 -224 -60 -30 c-33 -17 -60 -33 -60 -35
0 -10 70 -145 75 -145 3 0 52 24 110 52 l105 53 0 205 0 206 130 25 130 26 0
-133 0 -134 -60 -30 c-33 -17 -60 -35 -60 -40 0 -6 16 -42 35 -80 l35 -70 110
55 110 55 0 290 0 290 -27 -1 c-16 -1 -151 -26 -300 -56z"/>
<path d="M1470 4525 l0 -85 85 0 85 0 0 85 0 85 -85 0 -85 0 0 -85z"/>
<path d="M3527 4603 c-4 -3 -7 -42 -7 -85 l0 -78 85 0 85 0 0 85 0 85 -78 0
c-43 0 -82 -3 -85 -7z"/>
<path d="M4637 3834 c-4 -4 -7 -43 -7 -86 l0 -78 90 0 91 0 -3 83 -3 82 -80 3
c-45 1 -84 0 -88 -4z"/>
<path d="M274 3487 c-3 -8 -4 -47 -2 -88 l3 -74 85 0 85 0 0 85 0 85 -83 3
c-63 2 -84 0 -88 -11z"/>
<path d="M190 1105 l0 -85 85 0 85 0 0 85 0 85 -85 0 -85 0 0 -85z"/>
<path d="M4720 1105 l0 -85 85 0 85 0 0 85 0 85 -85 0 -85 0 0 -85z"/>
<path d="M4760 719 c-157 -32 -288 -58 -292 -59 -5 0 -8 -100 -8 -223 l0 -223
-60 -29 c-33 -16 -60 -30 -60 -32 0 -4 71 -146 75 -151 1 -2 50 21 109 50
l106 53 0 206 0 206 113 22 c61 12 120 24 130 27 16 5 17 -6 17 -130 l0 -136
-60 -30 c-33 -17 -60 -33 -60 -35 0 -10 70 -145 75 -145 3 0 52 24 110 52
l105 53 0 292 c0 161 -3 293 -7 292 -5 -1 -136 -27 -293 -60z"/>
<path d="M293 607 l-103 -52 0 -170 0 -171 -60 -29 c-33 -16 -60 -32 -60 -37
0 -5 16 -40 35 -78 l35 -70 110 55 110 55 0 170 0 170 60 30 c33 17 60 33 60
35 0 13 -71 145 -78 144 -4 0 -53 -23 -109 -52z"/>
<path d="M790 415 l0 -85 85 0 85 0 0 85 0 85 -85 0 -85 0 0 -85z"/>
</g>
</svg>
