<?xml version="1.0" encoding="UTF-8"?>
<svg version="1.1" xmlns="http://www.w3.org/2000/svg" width="512" height="512">
<path d="M0 0 C1.30030403 -0.01467567 1.30030403 -0.01467567 2.62687683 -0.02964783 C5.50424661 -0.05963366 8.38156971 -0.08099813 11.2590332 -0.09985352 C12.73257232 -0.10971126 12.73257232 -0.10971126 14.2358799 -0.11976814 C19.43751205 -0.15237856 24.6391236 -0.17682316 29.84082031 -0.19628906 C34.14483499 -0.21409272 38.44819332 -0.24889559 42.75195312 -0.29882812 C47.9479507 -0.35904487 53.14334027 -0.38976733 58.33967018 -0.39946175 C60.3184192 -0.40801666 62.29715198 -0.42683566 64.27570152 -0.45620537 C67.0504039 -0.49516928 69.82274467 -0.49614825 72.59765625 -0.48828125 C73.4109137 -0.50828186 74.22417114 -0.52828247 75.06207275 -0.54888916 C80.4740175 -0.48022641 83.23500356 0.86962795 87.14436054 4.60908413 C89.55314645 7.21622164 91.74971431 9.92831348 93.87231445 12.77124023 C94.82075212 14.00981736 95.77133003 15.2467581 96.72387695 16.48217773 C97.20244141 17.10318359 97.68100586 17.72418945 98.17407227 18.36401367 C100.45714549 21.27212245 102.84631429 24.08535444 105.24731445 26.89624023 C105.69864746 27.42958984 106.14998047 27.96293945 106.61499023 28.51245117 C108.80669515 31.09940754 111.02065796 33.65511928 113.27856445 36.18530273 C120.08342124 44.0022743 120.08342124 44.0022743 121.18481445 48.27124023 C120.3087673 54.40357031 116.74775076 57.76697655 112.62231445 62.20874023 C111.41188477 63.54291992 111.41188477 63.54291992 110.17700195 64.90405273 C108.49845101 66.75098497 106.81340784 68.59203522 105.12231445 70.42749023 C102.7170063 73.10339555 100.44002196 75.84333947 98.18481445 78.64624023 C94.90882324 82.71218678 91.4922938 86.57958686 87.93481445 90.39624023 C83.83495689 94.79572457 80.11009856 99.3069896 76.62231445 104.20874023 C77.15856445 104.28350586 77.69481445 104.35827148 78.24731445 104.43530273 C95.89101014 107.39526484 114.93879291 116.20929729 128.83325195 127.44311523 C130.67346289 128.44683971 130.67346289 128.44683971 132.92700195 127.60717773 C136.17800714 125.92042432 139.27215627 124.02770535 142.37231445 122.08374023 C177.42131796 100.7173618 221.36855746 92.58966064 261.62231445 102.20874023 C262.44666992 102.40209961 263.27102539 102.59545898 264.12036133 102.79467773 C299.49718866 111.36767105 332.64572354 131.92001122 354.62231445 161.20874023 C355.42024414 162.2412793 356.21817383 163.27381836 357.0402832 164.33764648 C371.4081386 183.33063625 381.09265873 205.84402324 385.62231445 229.20874023 C385.79964111 230.11503174 385.97696777 231.02132324 386.15966797 231.95507812 C387.79858114 241.29039174 387.98068871 250.45043664 387.93481445 259.89624023 C387.9326593 260.69409943 387.93050415 261.49195862 387.92828369 262.31399536 C387.87815369 273.86982947 387.51721156 284.96741423 384.62231445 296.20874023 C384.42895508 297.01166504 384.2355957 297.81458984 384.03637695 298.6418457 C374.15306224 339.1588604 348.97099266 375.2651626 313.47875977 397.55493164 C275.41530827 420.63884666 230.89989825 428.47168142 187.38793945 417.98999023 C170.49005281 413.6248987 154.17363601 407.20365909 139.68164062 397.39526367 C135.02833671 394.22361901 135.02833671 394.22361901 129.62231445 393.20874023 C127.40603157 394.33426111 127.40603157 394.33426111 125.30981445 396.14624023 C93.49323841 419.84345266 49.00356931 426.28657664 10.65869141 420.6875 C-22.22175427 415.2705293 -51.30662848 400.01289956 -75.37768555 377.20874023 C-76.33416992 376.31670898 -77.2906543 375.42467773 -78.27612305 374.50561523 C-100.31577018 353.53498898 -114.49781621 325.62818148 -121.37768555 296.20874023 C-121.69737305 294.93385742 -122.01706055 293.65897461 -122.34643555 292.34545898 C-130.97957374 253.69755342 -122.48287023 209.55076034 -101.8972168 176.07592773 C-96.95304526 168.3464563 -91.40745601 161.12435344 -85.37768555 154.20874023 C-84.95374512 153.71776855 -84.52980469 153.22679687 -84.09301758 152.72094727 C-77.74950148 145.41327235 -71.07580374 139.11709985 -63.37768555 133.20874023 C-62.47791992 132.48170898 -61.5781543 131.75467773 -60.65112305 131.00561523 C-43.74568203 117.68617686 -23.96364226 109.10632399 -3.37768555 103.20874023 C-3.92295898 102.61448242 -4.46823242 102.02022461 -5.0300293 101.40795898 C-9.0434344 96.99664364 -12.95584828 92.5470632 -16.69018555 87.89624023 C-20.10190025 83.67476427 -23.67075427 79.66789931 -27.37768555 75.70874023 C-32.6499348 70.07548105 -37.5748471 64.25102086 -42.37768555 58.20874023 C-43.10084961 57.33088867 -43.82401367 56.45303711 -44.5690918 55.54858398 C-46.60644147 52.91279034 -47.29657107 51.53443361 -47.37768555 48.20874023 C-45.30062117 43.24490842 -42.41627901 39.65865352 -38.87768555 35.70874023 C-34.71034801 30.95829235 -30.68298063 26.14374825 -26.81518555 21.14624023 C-23.06793739 16.32153037 -19.24772944 11.57153305 -15.31518555 6.89624023 C-14.84975342 6.33864014 -14.38432129 5.78104004 -13.90478516 5.20654297 C-9.48190238 -0.01287014 -6.59674789 0.04671678 0 0 Z M-10.37768555 26.20874023 C-11.83548282 27.98001489 -13.2937924 29.75086807 -14.75268555 31.52124023 C-17.29962484 34.69181282 -19.25703358 37.67432028 -21.37768555 41.20874023 C-14.11768555 41.20874023 -6.85768555 41.20874023 0.62231445 41.20874023 C3.91223047 33.03447528 3.91223047 33.03447528 6.87231445 24.77124023 C7.2074707 23.7825293 7.54262695 22.79381836 7.88793945 21.77514648 C8.75986828 19.17293512 8.75986828 19.17293512 8.62231445 16.20874023 C-1.24873411 14.3540547 -4.69203597 18.69263873 -10.37768555 26.20874023 Z M25.62231445 16.20874023 C22.98231445 24.45874023 20.34231445 32.70874023 17.62231445 41.20874023 C30.16231445 41.20874023 42.70231445 41.20874023 55.62231445 41.20874023 C54.67356445 38.01186523 53.72481445 34.81499023 52.74731445 31.52124023 C52.45228027 30.52261963 52.15724609 29.52399902 51.85327148 28.49511719 C51.61463379 27.69549561 51.37599609 26.89587402 51.13012695 26.07202148 C50.8892334 25.26031494 50.64833984 24.4486084 50.40014648 23.61230469 C49.5885832 21.1045079 48.60124277 18.65606103 47.62231445 16.20874023 C40.36231445 16.20874023 33.10231445 16.20874023 25.62231445 16.20874023 Z M64.62231445 16.20874023 C66.77101656 24.76861042 69.5894952 32.92996336 72.62231445 41.20874023 C79.88231445 41.20874023 87.14231445 41.20874023 94.62231445 41.20874023 C92.57851123 37.80240154 90.82840829 35.0843061 88.3371582 32.10717773 C87.72420898 31.36983398 87.11125977 30.63249023 86.47973633 29.87280273 C85.84616211 29.11741211 85.21258789 28.36202148 84.55981445 27.58374023 C83.29685027 26.07175885 82.03508073 24.55877856 80.7746582 23.04467773 C80.21770264 22.38000488 79.66074707 21.71533203 79.08691406 21.03051758 C77.62231445 19.20874023 77.62231445 19.20874023 75.62231445 16.20874023 C72.9557754 15.8441357 72.9557754 15.8441357 69.99731445 16.02124023 C68.99442383 16.04831055 67.9915332 16.07538086 66.95825195 16.10327148 C65.80196289 16.15547852 65.80196289 16.15547852 64.62231445 16.20874023 Z M-20.37768555 57.20874023 C-18.60268704 61.00999737 -16.18731254 63.75824598 -13.31518555 66.77124023 C-9.68781563 70.64549921 -6.20221981 74.56659899 -2.87768555 78.70874023 C2.59494181 85.50746536 8.44930097 92.03572675 14.62231445 98.20874023 C13.14918445 90.30500079 10.54206763 82.88240089 7.82666016 75.34008789 C7.05229837 73.18785026 6.28693755 71.0325617 5.52270508 68.87670898 C3.80407875 62.58037155 3.80407875 62.58037155 0.62231445 57.20874023 C-0.939413 57.1218842 -2.50497899 57.10171804 -4.0690918 57.11108398 C-5.01333008 57.11430664 -5.95756836 57.1175293 -6.93041992 57.12084961 C-8.42025391 57.13341797 -8.42025391 57.13341797 -9.94018555 57.14624023 C-10.93727539 57.15075195 -11.93436523 57.15526367 -12.96166992 57.15991211 C-15.43373403 57.17174017 -17.90568073 57.18822174 -20.37768555 57.20874023 Z M18.62231445 57.20874023 C19.91871977 63.04256415 21.23728764 68.46522562 23.1887207 74.05249023 C23.42767563 74.74765747 23.66663055 75.44282471 23.91282654 76.15905762 C24.41219695 77.60839427 24.91392766 79.05691974 25.41796875 80.50463867 C26.1920288 82.72947603 26.95748818 84.95714239 27.72192383 87.18530273 C28.21035851 88.59953719 28.69927297 90.01360606 29.1887207 91.42749023 C29.41789688 92.0940564 29.64707306 92.76062256 29.88319397 93.4473877 C30.81982764 96.57486875 30.81982764 96.57486875 32.62231445 99.20874023 C35.29290296 99.34989185 37.94663683 99.25121131 40.62231445 99.20874023 C44.65289946 90.77330161 47.46578182 82.01342868 50.37231445 73.14624023 C52.97106445 65.25717773 52.97106445 65.25717773 55.62231445 57.20874023 C43.41231445 57.20874023 31.20231445 57.20874023 18.62231445 57.20874023 Z M72.62231445 57.20874023 C69.56651834 64.84823051 66.68478484 72.4775802 63.99316406 80.2434082 C63.30043997 82.23570151 62.59712196 84.22407392 61.89379883 86.21264648 C61.45238993 87.4819506 61.01161046 88.75147382 60.5715332 90.02124023 C60.17281006 91.16206055 59.77408691 92.30288086 59.36328125 93.47827148 C58.31383322 96.14665477 58.31383322 96.14665477 59.62231445 98.20874023 C64.22397021 93.19369696 68.72863732 88.13678036 72.99731445 82.83374023 C77.10400097 77.74892874 81.46258169 72.97793864 85.9465332 68.22827148 C89.04708169 64.72940435 91.81732426 60.94872716 94.62231445 57.20874023 C87.36231445 57.20874023 80.10231445 57.20874023 72.62231445 57.20874023 Z M4.62231445 118.20874023 C3.45708252 118.49080322 3.45708252 118.49080322 2.26831055 118.77856445 C-15.84950652 123.32338506 -33.40439959 130.94443336 -48.37768555 142.20874023 C-49.22073242 142.84295898 -50.0637793 143.47717773 -50.93237305 144.13061523 C-61.25514777 152.17015941 -70.45849581 160.77355793 -78.37768555 171.20874023 C-78.78374023 171.7345166 -79.18979492 172.26029297 -79.6081543 172.80200195 C-86.45695277 181.71861074 -91.75510233 190.97029147 -96.37768555 201.20874023 C-96.92295898 202.39983398 -97.46823242 203.59092773 -98.0300293 204.81811523 C-112.59684816 238.77029355 -112.50910825 278.95175952 -99.4206543 313.28686523 C-91.72581997 332.38552748 -80.59248584 348.46746586 -66.37768555 363.20874023 C-65.30454102 364.37663086 -65.30454102 364.37663086 -64.2097168 365.56811523 C-40.2808105 390.88875905 -3.46488427 405.22610041 30.97387695 406.43139648 C62.41010771 407.11908069 92.65666097 399.38586888 118.62231445 381.20874023 C117.92106445 380.50749023 117.21981445 379.80624023 116.49731445 379.08374023 C113.53898112 376.1254069 110.58064779 373.16707357 107.62231445 370.20874023 C102.84377646 371.64451051 98.58047011 373.7046913 94.18481445 376.02124023 C64.08125825 391.40549082 28.12414045 393.49880802 -3.94018555 383.14624023 C-19.07958266 377.96357331 -33.10640268 370.51078306 -45.37768555 360.20874023 C-46.23491211 359.49073242 -47.09213867 358.77272461 -47.9753418 358.03295898 C-72.15695712 336.9908424 -87.66413523 308.16582413 -91.37768555 276.20874023 C-91.68788302 271.20516519 -91.75921217 266.22118773 -91.75268555 261.20874023 C-91.75247406 260.53198242 -91.75226257 259.85522461 -91.75204468 259.15795898 C-91.71574304 247.46435973 -90.52763927 236.49298621 -87.37768555 225.20874023 C-87.05026367 223.9519043 -86.7228418 222.69506836 -86.38549805 221.40014648 C-84.06066227 213.51776534 -80.63334666 206.37318534 -76.87768555 199.08374023 C-76.41483154 198.18212158 -75.95197754 197.28050293 -75.47509766 196.3515625 C-72.93698702 191.58681824 -70.58691166 187.6405552 -66.37768555 184.20874023 C-63.00802274 183.65859121 -61.13327896 183.89059564 -58.00268555 185.20874023 C-56.00604072 187.66614925 -55.57842606 189.58030621 -55.7331543 192.73217773 C-56.731359 196.5677037 -58.87444647 199.58124397 -61.0300293 202.87304688 C-75.94066143 225.86135757 -80.23363712 255.79379631 -75.19018555 282.52124023 C-74.63366605 284.76277708 -74.03022847 286.99325177 -73.37768555 289.20874023 C-73.03737305 290.41788086 -72.69706055 291.62702148 -72.34643555 292.87280273 C-63.32876791 322.30208294 -43.37290498 346.45903314 -16.37768555 361.20874023 C10.90046936 375.21014612 41.21990884 378.14945744 70.52905273 369.2565918 C79.80643869 366.26542433 88.20978011 362.09744013 96.62231445 357.20874023 C96.05577148 356.3830957 96.05577148 356.3830957 95.4777832 355.54077148 C71.02599096 318.60539444 59.77869845 274.55815249 68.11108398 230.63208008 C72.54998328 209.00880925 80.31415457 188.89731952 92.82861328 170.63598633 C95.14986892 167.24621629 95.14986892 167.24621629 95.62231445 163.20874023 C65.93956922 147.48975689 35.09736512 142.1574188 2.43579102 151.8581543 C-10.436783 155.93535962 -21.7723566 162.14513845 -32.19018555 170.70874023 C-35.8204702 173.67420167 -38.71068426 175.8656827 -43.56518555 175.95874023 C-47.37768555 175.20874023 -47.37768555 175.20874023 -49.37768555 173.20874023 C-50.38722885 170.00394841 -50.34195644 167.42297653 -49.37768555 164.20874023 C-46.191918 160.52519651 -42.40119484 157.91845057 -38.37768555 155.20874023 C-37.35545898 154.51651367 -36.33323242 153.82428711 -35.2800293 153.11108398 C-6.73732502 134.75462362 28.25050959 127.05005494 61.83007812 133.80249023 C63.768746 134.23731365 65.6958498 134.72269655 67.62231445 135.20874023 C68.26604004 135.36971191 68.90976563 135.53068359 69.57299805 135.6965332 C102.35618029 144.16694589 130.27807157 165.24616382 147.69360352 194.12866211 C157.50678477 211.05870583 165.6160547 231.33393524 164.62231445 251.20874023 C162.62231445 254.20874023 162.62231445 254.20874023 159.24731445 255.02124023 C155.62231445 255.20874023 155.62231445 255.20874023 153.30981445 254.77124023 C149.5908586 251.32776259 149.31995929 243.78358311 148.33007812 238.86767578 C145.36905235 224.4984099 139.874114 211.93157198 132.62231445 199.20874023 C131.96231445 199.20874023 131.30231445 199.20874023 130.62231445 199.20874023 C119.01170456 214.55680239 113.55676498 236.32151288 112.62231445 255.20874023 C112.54303711 256.39016602 112.54303711 256.39016602 112.4621582 257.59545898 C111.61699542 281.00279344 119.22547167 302.20094957 130.62231445 322.20874023 C131.28231445 322.20874023 131.94231445 322.20874023 132.62231445 322.20874023 C139.24585591 310.41912504 144.63803411 299.11330997 147.6340332 285.82202148 C147.8012085 285.09378174 147.96838379 284.36554199 148.140625 283.61523438 C148.45360759 282.21403049 148.74663342 280.80816588 149.01611328 279.39794922 C149.75018792 276.02548618 150.32703381 274.44743731 153.0480957 272.24780273 C156.36469792 270.90908317 158.23293634 271.15426704 161.62231445 272.20874023 C164.64788842 276.74710119 164.12631565 281.19639375 163.24243164 286.47924805 C162.72390278 288.78594633 162.13287733 291.05654409 161.49731445 293.33374023 C161.27140625 294.15777344 161.04549805 294.98180664 160.81274414 295.83081055 C157.51491879 307.50177386 153.12066935 318.05307241 146.60571289 328.2878418 C143.65584274 332.45048541 143.65584274 332.45048541 142.62231445 337.20874023 C144.71860762 339.91396662 144.71860762 339.91396662 147.55981445 342.45874023 C148.49696289 343.35077148 149.43411133 344.24280273 150.3996582 345.16186523 C151.13313477 345.83733398 151.86661133 346.51280273 152.62231445 347.20874023 C156.4607309 343.63295228 159.33066691 339.92798929 161.99731445 335.39624023 C162.57594238 334.41772095 162.57594238 334.41772095 163.16625977 333.41943359 C181.85687732 301.07355272 187.80480569 261.83654841 178.37231445 225.58374023 C168.79781333 190.69330883 148.51931897 159.00922377 117.62231445 139.20874023 C117.03627441 138.83104492 116.45023438 138.45334961 115.84643555 138.06420898 C99.98618306 127.95856138 83.0661988 120.9288443 64.62231445 117.20874023 C63.59364258 116.98444336 62.5649707 116.76014648 61.50512695 116.52905273 C43.16763773 113.19080657 22.72021594 113.75042704 4.62231445 118.20874023 Z M193.62231445 118.20874023 C192.9281543 118.3750293 192.23399414 118.54131836 191.51879883 118.71264648 C174.99638058 122.80160425 159.77620128 129.80615817 145.62231445 139.20874023 C147.09952867 142.66075662 149.06025446 144.8583596 151.74731445 147.45874023 C152.83399414 148.51834961 152.83399414 148.51834961 153.94262695 149.59936523 C154.49692383 150.13045898 155.0512207 150.66155273 155.62231445 151.20874023 C158.73920273 150.04068791 161.72307877 148.69311666 164.7043457 147.22045898 C174.79686898 142.24170945 184.68993292 137.94251975 195.62231445 135.20874023 C196.88430664 134.8903418 198.14629883 134.57194336 199.4465332 134.24389648 C231.78282889 126.99119551 267.69293405 133.60313562 295.62231445 151.20874023 C323.45415473 169.43747283 343.00477059 196.00556218 351.62231445 228.20874023 C351.96133789 229.4681543 352.30036133 230.72756836 352.6496582 232.02514648 C359.64318149 263.96331043 354.31888675 300.52499348 336.62231445 328.20874023 C334.31165707 331.04233586 333.97497179 331.17095552 330.12231445 331.58374023 C326.62231445 331.20874023 326.62231445 331.20874023 324.74731445 330.08374023 C323.11769487 327.36770759 322.81475125 325.38764808 322.62231445 322.20874023 C323.72020399 319.5104879 324.83898925 317.16719138 326.24731445 314.64624023 C326.99877545 313.21607719 327.74614043 311.78375486 328.48950195 310.34936523 C328.8565625 309.64489258 329.22362305 308.94041992 329.60180664 308.21459961 C342.15897362 283.53285705 343.54749655 252.66980244 335.14575195 226.51342773 C325.25699692 197.28291859 305.30642933 172.95092502 277.68481445 158.89624023 C250.10463718 145.44775312 219.42585709 143.07786338 190.2121582 152.59936523 C182.27800714 155.35540013 174.83715019 158.89818159 167.62231445 163.20874023 C167.62231445 167.15623378 169.47243805 169.25910022 171.62231445 172.39624023 C194.25808361 206.61237018 202.81920846 249.44122354 195.13354492 289.77368164 C190.06232751 314.29589561 180.83274501 336.49934143 166.62231445 357.20874023 C194.18830627 373.27699971 224.77902729 378.66660375 255.88842773 370.62280273 C274.92235692 365.31443772 290.47095202 355.8434393 305.2512207 342.90795898 C308.94002427 340.26441772 311.18359923 340.77214529 315.62231445 341.20874023 C318.04751991 343.63394569 318.30795886 344.82941765 318.62231445 348.20874023 C315.01511226 360.2197486 298.20242568 368.56102442 287.77075195 374.40795898 C258.19638721 390.30911654 222.60673344 393.75728248 190.34936523 384.56591797 C160.20101229 375.30697085 134.78557391 356.77055701 117.62231445 330.20874023 C116.97520508 329.21100586 116.3280957 328.21327148 115.66137695 327.18530273 C98.59029485 299.37956638 93.47831867 264.09531369 100.6574707 232.42749023 C104.15608899 218.03379716 109.2432398 204.9437132 116.88793945 192.23217773 C118.40133048 189.59396905 119.58349136 187.06020361 120.62231445 184.20874023 C117.56153674 180.3609054 114.68188866 177.061414 110.62231445 174.20874023 C109.96231445 174.20874023 109.30231445 174.20874023 108.62231445 174.20874023 C107.41129635 175.67225103 107.41129635 175.67225103 106.2668457 177.61889648 C105.8126123 178.35390381 105.35837891 179.08891113 104.89038086 179.84619141 C104.16987549 181.04659058 104.16987549 181.04659058 103.43481445 182.27124023 C102.94158691 183.08890869 102.44835937 183.90657715 101.94018555 184.74902344 C89.655889 205.42832552 81.4356316 228.9860338 80.62231445 253.20874023 C80.58235352 254.32893555 80.54239258 255.44913086 80.5012207 256.60327148 C79.7696442 297.70065714 95.83651881 334.43212139 123.62231445 364.20874023 C126.79951863 367.4314052 130.10455896 370.36319951 133.62231445 373.20874023 C134.13536133 373.62687988 134.6484082 374.04501953 135.17700195 374.47583008 C155.86685307 391.11634707 180.38843498 401.44864726 206.62231445 405.20874023 C208.49209961 405.48331055 208.49209961 405.48331055 210.3996582 405.76342773 C246.92968873 410.1697225 286.07515107 399.22767936 315.05200195 376.58374023 C318.3517588 373.90957147 321.50668942 371.09407577 324.62231445 368.20874023 C325.16484863 367.71003418 325.70738281 367.21132813 326.26635742 366.69750977 C347.28502713 347.15859386 361.3307975 321.86857918 368.62231445 294.20874023 C369.1037793 292.41436523 369.1037793 292.41436523 369.5949707 290.58374023 C373.93893649 270.86415602 373.76384855 246.72179132 368.62231445 227.20874023 C368.45070801 226.52537598 368.27910156 225.84201172 368.10229492 225.13793945 C360.6774316 195.89631957 344.2031821 168.31737436 320.62231445 149.20874023 C319.22239258 148.05245117 319.22239258 148.05245117 317.79418945 146.87280273 C302.20384863 134.26163298 284.19242468 125.50887593 264.99731445 119.89624023 C264.17529541 119.65365479 263.35327637 119.41106934 262.50634766 119.16113281 C250.61655017 115.85730833 238.67591153 114.83901806 226.37231445 114.89624023 C225.10742188 114.90115479 223.8425293 114.90606934 222.53930664 114.91113281 C212.63093413 115.03451293 203.24533332 115.85170379 193.62231445 118.20874023 Z " fill="#000000" transform="translate(124.377685546875,44.791259765625)"/>
</svg>
