<?xml version="1.0" encoding="UTF-8"?>
<svg version="1.1" xmlns="http://www.w3.org/2000/svg" width="512" height="512">
<path d="M0 0 C3.6376816 1.18436145 4.50138364 1.22386857 8.0625 -0.375 C9.031875 -0.91125 10.00125 -1.4475 11 -2 C19.01930368 -4.94041135 26.59023212 -2.33731278 34 1 C39.49536375 4.10607517 41.84086916 9.25339022 44 15 C46.5654963 24.82397365 43.60874823 34.24855674 39 43 C55.80909162 52.06161312 72.63229768 61.09637631 89.46777344 70.10888672 C95.31257107 73.23790961 101.15619355 76.36912651 107 79.5 C109.29687015 80.7304778 111.59374517 81.96094651 113.890625 83.19140625 C117.57747396 85.16650391 121.26432292 87.14160156 124.95117188 89.11669922 C125.61693237 89.47335663 126.28269287 89.83001404 126.96862793 90.19747925 C128.30106608 90.9112854 129.63350423 91.62509155 130.96594238 92.33889771 C131.61140015 92.68467865 132.25685791 93.03045959 132.921875 93.38671875 C133.55802734 93.72751465 134.19417969 94.06831055 134.84960938 94.41943359 C135.47673828 94.75539551 136.10386719 95.09135742 136.75 95.4375 C137.68392578 95.93781738 137.68392578 95.93781738 138.63671875 96.44824219 C139.24128906 96.77211914 139.84585937 97.09599609 140.46875 97.4296875 C143.3125 98.953125 146.15625 100.4765625 149 102 C149.18900879 101.38366699 149.37801758 100.76733398 149.57275391 100.13232422 C149.82976074 99.3229541 150.08676758 98.51358398 150.3515625 97.6796875 C150.60244629 96.87772949 150.85333008 96.07577148 151.11181641 95.24951172 C153.07981557 90.26514001 157.3443586 87.3278207 162 85 C171.15365385 82.62926951 183.54970699 82.48595459 192 87 C196.45117794 89.77706234 199.27215456 93.00844649 201 98 C201.22276118 101.01965152 201.1812428 103.97928674 201 107 C201.65226562 106.96519531 202.30453125 106.93039063 202.9765625 106.89453125 C208.44189703 106.72525098 212.3802116 106.74514908 217 110 C222.1174852 114.98216708 225.20599008 119.69566646 225.3359375 127.01953125 C225.35975927 128.95041779 225.37243725 130.88146822 225.375 132.8125 C225.39949219 133.77220703 225.42398437 134.73191406 225.44921875 135.72070312 C225.47758508 142.64681573 224.42133014 148.31253354 219.58764648 153.5222168 C213.26151907 159.13340168 209.70730652 159 201 159 C201 222.03 201 285.06 201 350 C203.64 350 206.28 350 209 350 C215.42731442 351.50300276 219.211032 354.74985465 222.90625 360.09765625 C225.75379816 365.05035608 225.22121694 370.20926106 225.25 375.75 C225.2809375 377.21566406 225.2809375 377.21566406 225.3125 378.7109375 C225.35214348 386.06480327 224.56626124 391.02853962 219.625 396.75 C213.54923294 401.95780034 208.86518363 402.60054234 201 403 C201.103125 404.155 201.20625 405.31 201.3125 406.5 C201.3125 411.69350771 199.19699471 415.03678342 196 419 C190.81005269 424.18994731 184.59219581 425.23840612 177.49121094 425.38085938 C160.84835625 425.3385291 160.84835625 425.3385291 154.10546875 419.3046875 C149.33167017 413.78183856 149.78306589 410.83065885 149 403 C52.64 403 -43.72 403 -143 403 C-143.33 406.3 -143.66 409.6 -144 413 C-147.27108923 418.87118579 -150.42144503 422.19283025 -156.82421875 424.37890625 C-165.86903285 426.14781823 -178.91443776 427.12742971 -187 422 C-190.83598575 418.54009128 -194.70955416 414.1832864 -195.1953125 408.859375 C-195.09765625 405.9296875 -195.09765625 405.9296875 -195 403 C-195.70125 402.98582031 -196.4025 402.97164063 -197.125 402.95703125 C-203.92257262 402.61530545 -208.8196241 401.56948251 -214 397 C-219.33300052 390.29956345 -219.23112099 384.49640641 -219.3125 376.25 C-219.34150391 375.28578125 -219.37050781 374.3215625 -219.40039062 373.328125 C-219.46205634 366.3456685 -218.41907537 360.77849954 -213.62280273 355.47802734 C-207.64762806 350.08040419 -202.97569864 350 -195 350 C-195 286.97 -195 223.94 -195 159 C-197.97 159 -200.94 159 -204 159 C-209.88412585 157.40716338 -213.59465563 153.90770218 -217 149 C-219.47349188 143.71029042 -219.36737328 138.93423587 -219.375 133.1875 C-219.39949219 132.22779297 -219.42398438 131.26808594 -219.44921875 130.27929688 C-219.4794428 122.89959081 -218.12070856 117.53680303 -213.18359375 111.94140625 C-212.60738281 111.48636719 -212.03117187 111.03132813 -211.4375 110.5625 C-210.85871094 110.08941406 -210.27992188 109.61632812 -209.68359375 109.12890625 C-206.43271724 106.94908418 -203.60103584 106.88829824 -199.8125 106.9375 C-198.46091797 106.95103516 -198.46091797 106.95103516 -197.08203125 106.96484375 C-196.39496094 106.97644531 -195.70789063 106.98804688 -195 107 C-195.05800781 106.443125 -195.11601562 105.88625 -195.17578125 105.3125 C-195.55824343 98.84342536 -194.09643668 94.99041043 -190 90 C-184.6362143 84.49124712 -178.53452805 83.93838229 -171.18017578 83.71459961 C-162.86470867 83.60818771 -155.72841843 83.92000216 -149.125 89.375 C-145.7530774 93.54031616 -143.94809175 96.73282364 -143 102 C-130.19150292 95.39807955 -117.42652348 88.73869776 -104.79736328 81.79931641 C-96.65365176 77.33406206 -88.45626394 72.97376972 -80.25 68.625 C-69.92354959 63.15076301 -59.60580669 57.66135155 -49.3125 52.125 C-48.23838867 51.54830566 -47.16427734 50.97161133 -46.05761719 50.37744141 C-44.5692334 49.5757251 -44.5692334 49.5757251 -43.05078125 48.7578125 C-42.19137939 48.2952002 -41.33197754 47.83258789 -40.4465332 47.35595703 C-37.92802914 45.96011115 -35.46044071 44.49545955 -33 43 C-33.34933594 42.24976563 -33.69867188 41.49953125 -34.05859375 40.7265625 C-38.33900554 31.09866743 -40.84135107 22.20191377 -37 12 C-33.45013432 4.44262045 -28.76007292 0.86840979 -21 -2 C-13.31039591 -4.25909273 -7.27073541 -2.67059705 0 0 Z M-26 15 C-28.05539304 21.16617913 -27.78279806 27.08265061 -25.0625 33 C-20.24264943 41.58201171 -13.29648731 48.02405789 -5.75 54.1875 C-5.15968994 54.6817749 -4.56937988 55.1760498 -3.96118164 55.68530273 C-1.46562614 57.64738165 0.295399 58.97491359 3.5234375 59.08984375 C6.84042298 57.63016087 9.5674408 55.62663536 12.375 53.375 C12.94935791 52.92060547 13.52371582 52.46621094 14.11547852 51.99804688 C22.4003319 45.3635954 29.54977163 38.35068512 33 28 C33.49959797 22.3314846 33.75880171 17.59409098 30 13 C27.53531364 10.12453258 25.54427641 9.13610572 21.6953125 8.796875 C14.8380225 8.64691764 14.8380225 8.64691764 9 12 C8.525625 12.721875 8.05125 13.44375 7.5625 14.1875 C6 16 6 16 3.125 16.5625 C-0.96438705 15.82641033 -2.29690338 14.06837994 -5 11 C-12.1149247 6.25671687 -20.70538329 8.64645995 -26 15 Z M-25 52 C-27.31500599 53.03832563 -29.49508216 54.13667035 -31.71875 55.34765625 C-32.39976776 55.71045685 -33.08078552 56.07325745 -33.78244019 56.447052 C-36.02578603 57.64460378 -38.26283045 58.85345517 -40.5 60.0625 C-42.05643642 60.89627459 -43.61324297 61.72935858 -45.17041016 62.56176758 C-49.0695846 64.64859094 -52.963743 66.74457056 -56.8560791 68.84411621 C-59.92028202 70.49616526 -62.98754706 72.14247356 -66.0546875 73.7890625 C-70.23816558 76.03708181 -74.41891652 78.29006092 -78.59765625 80.546875 C-86.79625419 84.97301775 -95.0114784 89.36805038 -103.22607422 93.7644043 C-110.82369085 97.83129753 -118.41423761 101.9110492 -126 106 C-126 106.33 -126 106.66 -126 107 C-40.86 107 44.28 107 132 107 C128.54225857 104.40669393 125.3294421 102.48336339 121.5234375 100.48046875 C120.88973236 100.14556931 120.25602722 99.81066986 119.6031189 99.46562195 C118.23973444 98.74551695 116.87554054 98.0269428 115.51062012 97.30975342 C111.87063862 95.39696863 108.23663624 93.47287114 104.6015625 91.55078125 C103.86800537 91.1633374 103.13444824 90.77589355 102.37866211 90.37670898 C95.81756877 86.90963073 89.27995286 83.40042022 82.75 79.875 C80.65888227 78.74734371 78.56773628 77.61973983 76.4765625 76.4921875 C75.43145508 75.92854492 74.38634766 75.36490234 73.30957031 74.78417969 C67.8580054 71.84525697 62.40489882 68.90923981 56.94836426 65.97955322 C55.19374676 65.03693234 53.44011464 64.09247797 51.68652344 63.14794922 C44.5198614 59.30193239 37.29539863 55.59583629 30 52 C29.53972412 52.51183838 29.07944824 53.02367676 28.60522461 53.55102539 C24.32768588 58.22932898 19.59944414 61.90156442 14.375 65.4375 C13.74198975 65.87433105 13.10897949 66.31116211 12.45678711 66.76123047 C8.7150713 69.23096798 5.61426752 71.04261197 1 71 C-1.51620232 69.81344962 -3.49957206 68.69138821 -5.75 67.125 C-6.35618164 66.72023438 -6.96236328 66.31546875 -7.58691406 65.8984375 C-12.45307165 62.57044793 -16.84219195 58.81936661 -21.109375 54.75 C-22.88945644 52.93886553 -22.88945644 52.93886553 -25 52 Z M-184 101 C-184.7631077 105.06582467 -184.67403695 109.09606635 -184.63491821 113.22253418 C-184.64271817 114.47692905 -184.65051812 115.73132392 -184.65855443 117.02373075 C-184.67943636 120.50329164 -184.66910722 123.9821673 -184.65362334 127.46173072 C-184.64231897 131.21505878 -184.65976795 134.9682683 -184.67352295 138.72157288 C-184.69576979 146.07336809 -184.69094782 153.42490824 -184.67645974 160.77671349 C-184.66517315 166.75102021 -184.66363408 172.72525539 -184.66907883 178.6995697 C-184.66984499 179.54948454 -184.67061116 180.39939938 -184.67140054 181.27506921 C-184.67299915 183.0015919 -184.67462021 184.72811458 -184.6762635 186.45463723 C-184.69052523 202.64872145 -184.67412164 218.8426642 -184.64726166 235.03672522 C-184.62492248 248.93552439 -184.62880249 262.83411476 -184.65185547 276.73291016 C-184.67860601 292.86857241 -184.68915189 309.00411064 -184.67379415 325.13979197 C-184.67220138 326.86000472 -184.67062953 328.5802175 -184.66907883 330.3004303 C-184.66830745 331.14683365 -184.66753607 331.993237 -184.66674132 332.86528894 C-184.66242207 338.83323212 -184.66971569 344.8010967 -184.68147659 350.76902771 C-184.69549187 358.0408471 -184.69172232 365.31239659 -184.66507287 372.584185 C-184.65192133 376.2952786 -184.64680448 380.00592202 -184.66331863 383.71701241 C-184.68093941 387.7375564 -184.65991811 391.7569613 -184.63491821 395.77746582 C-184.64607182 396.95401214 -184.65722543 398.13055846 -184.66871703 399.3427577 C-184.76578338 405.84754346 -184.76578338 405.84754346 -181.5816555 411.21385956 C-177.37108233 414.12698062 -174.12413067 414.15558556 -169.0625 414.1875 C-168.04285156 414.20167969 -167.02320313 414.21585937 -165.97265625 414.23046875 C-162.13042913 413.93258255 -159.23881787 413.01760039 -156.25 410.5625 C-153.833185 407.54148124 -153.87360763 404.61545785 -153.86857224 400.91275978 C-153.86473109 399.85440127 -153.86088995 398.79604276 -153.8569324 397.70561278 C-153.85779888 396.53880457 -153.85866537 395.37199636 -153.85955811 394.16983032 C-153.85658698 392.93347851 -153.85361586 391.6971267 -153.8505547 390.42330968 C-153.84336599 386.98504861 -153.84069474 383.5468375 -153.83995724 380.10857248 C-153.83810796 376.40296778 -153.83056132 372.69737394 -153.82382202 368.99177551 C-153.8102336 360.88650553 -153.80421334 352.78124049 -153.79981136 344.67596102 C-153.7970501 339.61694388 -153.79281299 334.55792866 -153.78830719 329.49891281 C-153.77611443 315.49720441 -153.76581476 301.49549755 -153.7624321 287.49378395 C-153.76221253 286.59746091 -153.76199297 285.70113788 -153.76176675 284.77765354 C-153.76154847 283.87916589 -153.76133019 282.98067825 -153.7611053 282.05496371 C-153.76066183 280.23423362 -153.76021527 278.41350353 -153.75976562 276.59277344 C-153.7595442 275.68962522 -153.75932277 274.786477 -153.75909463 273.85596065 C-153.75514515 259.21605706 -153.73768659 244.5762032 -153.7144061 229.93631883 C-153.69070778 214.91268286 -153.67823096 199.88907186 -153.67706418 184.86541688 C-153.67614662 176.42735675 -153.67037399 167.98936143 -153.65224457 159.55131912 C-153.63686415 152.36736243 -153.63171095 145.18349058 -153.63998267 137.99952056 C-153.64389636 134.3330839 -153.64292475 130.6668182 -153.62892532 127.00040245 C-153.61389689 123.02823959 -153.62203155 119.05631894 -153.63250732 115.08413696 C-153.62445092 113.9217902 -153.61639452 112.75944343 -153.60809398 111.56187403 C-153.61468382 110.49830003 -153.62127367 109.43472602 -153.6280632 108.3389225 C-153.62746611 107.42200524 -153.62686903 106.50508798 -153.62625384 105.56038535 C-154.0852936 102.41568765 -155.1403516 100.5603332 -157 98 C-161.13909944 95.24060037 -164.50894206 95.59537877 -169.375 95.5625 C-170.65117187 95.51319336 -170.65117187 95.51319336 -171.953125 95.46289062 C-173.19449219 95.45225586 -173.19449219 95.45225586 -174.4609375 95.44140625 C-175.21165527 95.42795166 -175.96237305 95.41449707 -176.73583984 95.40063477 C-180.1933205 96.31589409 -182.2248678 97.96452155 -184 101 Z M161 100 C160.00229047 102.9931286 159.8728229 104.96158234 159.86857224 108.08724022 C159.86473109 109.14559873 159.86088995 110.20395724 159.8569324 111.29438722 C159.85779888 112.46119543 159.85866537 113.62800364 159.85955811 114.83016968 C159.85658698 116.06652149 159.85361586 117.3028733 159.8505547 118.57669032 C159.84336599 122.01495139 159.84069474 125.4531625 159.83995724 128.89142752 C159.83810796 132.59703222 159.83056132 136.30262606 159.82382202 140.00822449 C159.8102336 148.11349447 159.80421334 156.21875951 159.79981136 164.32403898 C159.7970501 169.38305612 159.79281299 174.44207134 159.78830719 179.50108719 C159.77611443 193.50279559 159.76581476 207.50450245 159.7624321 221.50621605 C159.76221253 222.40253909 159.76199297 223.29886212 159.76176675 224.22234646 C159.76154847 225.12083411 159.76133019 226.01932175 159.7611053 226.94503629 C159.76066183 228.76576638 159.76021527 230.58649647 159.75976562 232.40722656 C159.7595442 233.31037478 159.75932277 234.213523 159.75909463 235.14403935 C159.75514515 249.78394294 159.73768659 264.4237968 159.7144061 279.06368117 C159.69070778 294.08731714 159.67823096 309.11092814 159.67706418 324.13458312 C159.67614662 332.57264325 159.67037399 341.01063857 159.65224457 349.44868088 C159.63686415 356.63263757 159.63171095 363.81650942 159.63998267 371.00047944 C159.64389636 374.6669161 159.64292475 378.3331818 159.62892532 381.99959755 C159.61389689 385.97176041 159.62203155 389.94368106 159.63250732 393.91586304 C159.62445092 395.0782098 159.61639452 396.24055657 159.60809398 397.43812597 C159.61468382 398.50169997 159.62127367 399.56527398 159.6280632 400.6610775 C159.62746611 401.57799476 159.62686903 402.49491202 159.62625384 403.43961465 C160.21876846 407.49869515 162.14179406 410.14179406 165 413 C171.06712589 415.09860674 179.17403034 415.08041622 185.125 412.6875 C188.21005052 411.15810662 188.21005052 411.15810662 190 408 C190.30407561 405.58987443 190.30407561 405.58987443 190.26006222 402.8502903 C190.26712781 401.77799821 190.2741934 400.70570611 190.2814731 399.60092032 C190.27785047 397.82736231 190.27785047 397.82736231 190.27415466 396.01797485 C190.27939134 394.76528883 190.28462802 393.51260281 190.29002339 392.22195661 C190.30423335 388.73808317 190.30586612 385.2542988 190.30542648 381.77040052 C190.30707204 378.01570246 190.3201336 374.26104138 190.33161926 370.50636292 C190.35448793 362.2936574 190.36239175 354.08097769 190.36744571 345.86824465 C190.3707003 340.74222077 190.3772213 335.61620441 190.3844471 330.49018478 C190.40401479 316.30318506 190.42041823 302.11619233 190.42332363 287.92917824 C190.4235112 287.02098476 190.42369877 286.11279128 190.42389202 285.17707678 C190.42425828 283.33587766 190.42462198 281.49467854 190.42498314 279.65347941 C190.42516595 278.7394816 190.42534876 277.82548378 190.42553711 276.88378906 C190.42571766 275.96867838 190.42589821 275.05356771 190.42608423 274.1107264 C190.4296272 259.27678488 190.45665652 244.4429884 190.494035 229.6090972 C190.53208647 214.38657323 190.55148087 199.1641213 190.55178314 183.94154871 C190.5523684 175.39166091 190.56090411 166.84194616 190.58978081 158.29210281 C190.61425243 151.01294694 190.62160624 143.73402724 190.60653328 136.45484139 C190.59934713 132.73968942 190.60029421 129.0250042 190.62294388 125.3099041 C190.64724812 121.28492103 190.63294638 117.26100724 190.61473083 113.23599243 C190.6279308 112.05808187 190.64113077 110.88017131 190.65473074 109.66656649 C190.76207336 103.15980809 190.76207336 103.15980809 187.60110569 97.77469444 C184.93504508 95.95568226 183.70875994 95.36797174 180.53125 95.37109375 C179.71269531 95.36916016 178.89414062 95.36722656 178.05078125 95.36523438 C177.20902344 95.38908203 176.36726563 95.41292969 175.5 95.4375 C174.23736328 95.42106445 174.23736328 95.42106445 172.94921875 95.40429688 C167.75195103 95.46568193 164.67823702 95.97875278 161 100 Z M-204.875 119.8125 C-208.61196386 123.65937456 -208.21346917 127.80634665 -208.25 132.875 C-208.270625 133.58269531 -208.29125 134.29039062 -208.3125 135.01953125 C-208.34628588 139.55528619 -207.77984903 142.39095394 -205 146 C-201.46161553 148.56227841 -199.81203611 148 -195 148 C-195 138.1 -195 128.2 -195 118 C-201.57952747 117.37781559 -201.57952747 117.37781559 -204.875 119.8125 Z M-143 118 C-143 127.9 -143 137.8 -143 148 C-46.64 148 49.72 148 149 148 C149 138.1 149 128.2 149 118 C52.64 118 -43.72 118 -143 118 Z M201 118 C201 127.9 201 137.8 201 148 C207.24986359 148.09405455 207.24986359 148.09405455 212 145 C214.55369997 141.32516346 214.33213962 137.37143303 214.3125 133.0625 C214.32861328 132.35931641 214.34472656 131.65613281 214.36132812 130.93164062 C214.36554883 126.4281435 213.79661008 123.5563449 211 120 C207.63019987 117.35284977 207.63019987 117.35284977 201 118 Z M-143 159 C-143 222.03 -143 285.06 -143 350 C-46.64 350 49.72 350 149 350 C149 286.97 149 223.94 149 159 C52.64 159 -43.72 159 -143 159 Z M-206.625 365.61328125 C-208.56639644 368.98314836 -208.43701222 372.15819953 -208.375 375.9375 C-208.38660156 376.64068359 -208.39820313 377.34386719 -208.41015625 378.06835938 C-208.3849141 382.55725458 -207.78162436 385.45440838 -205 389 C-201.63019987 391.64715023 -201.63019987 391.64715023 -195 391 C-195 381.1 -195 371.2 -195 361 C-200.51581874 361 -202.77289558 361.78895643 -206.625 365.61328125 Z M-143 361 C-143 370.9 -143 380.8 -143 391 C-46.64 391 49.72 391 149 391 C149 381.1 149 371.2 149 361 C52.64 361 -43.72 361 -143 361 Z M201 361 C201 370.9 201 380.8 201 391 C207.57952747 391.62218441 207.57952747 391.62218441 210.875 389.1875 C214.57176041 385.38201134 214.27469048 381.2166546 214.375 376.1875 C214.41238281 375.48818359 214.44976562 374.78886719 214.48828125 374.06835938 C214.55663381 370.00897655 214.09579019 368.16328713 211.9765625 364.55078125 C208.62797349 361.20667169 208.62797349 361.20667169 201 361 Z " fill="#000000" transform="translate(253,45)"/>
<path d="M0 0 C4.29 0 8.58 0 13 0 C15.31 10.23 17.62 20.46 20 31 C20.5775 28.669375 21.155 26.33875 21.75 23.9375 C23.74249076 15.93338472 25.84909357 7.96293018 28 0 C32.29 0 36.58 0 41 0 C41 18.81 41 37.62 41 57 C37.7 57 34.4 57 31 57 C30.505 44.13 30.505 44.13 30 31 C28.02 39.58 26.04 48.16 24 57 C21.69 57 19.38 57 17 57 C14.8115578 52.23865953 13.90295484 47.29121321 12.875 42.1875 C12.25625 39.155625 11.6375 36.12375 11 33 C10.67 40.92 10.34 48.84 10 57 C6.7 57 3.4 57 0 57 C0 38.19 0 19.38 0 0 Z " fill="#000000" transform="translate(136,313)"/>
<path d="M0 0 C0.66 -0.33 1.32 -0.66 2 -1 C9.65385198 -1.65298597 15.87892649 -1.94895305 22 3 C26.80580392 9.19695769 27.7586086 14.34697795 27 22 C23.94236699 34.18921266 13.00674431 42.44857595 3 49 C0.13554749 50.43222625 -1.8157745 50.3069133 -5 50 C-16.24720315 43.52161099 -25.85919081 34.42242758 -30 22 C-30.74175619 15.15395512 -30.06094517 9.67222341 -26 4 C-18.73721149 -2.90850614 -9.30652575 -1.71436001 0 0 Z M-16.8125 11.125 C-18.57046104 13.90072796 -18.93753542 15.68937732 -19 19 C-16.35330194 26.94009418 -10.45410344 31.94510677 -4 37 C-3.01 37.33 -2.02 37.66 -1 38 C6.58711093 33.41639253 13.50386578 26.90399551 16.125 18.3125 C16.23853907 14.9336258 16.23853907 14.9336258 14.4375 12.0625 C12.13470881 9.76947321 12.13470881 9.76947321 9 9.4375 C5.89781186 9.72014957 5.89781186 9.72014957 4.0625 12 C2 14 2 14 -1.5 14.5 C-5.60566081 13.91347703 -6.21971821 12.8699683 -9 10 C-12.17374516 9.54660783 -14.05655076 9.41441082 -16.8125 11.125 Z " fill="#000000" transform="translate(358,235)"/>
<path d="M0 0 C1.68222656 -0.00386719 1.68222656 -0.00386719 3.3984375 -0.0078125 C6.625 0.125 6.625 0.125 9.3515625 0.6953125 C11.77705145 1.34482267 11.77705145 1.34482267 14.625 0.125 C22.0417001 -0.53643086 27.67303266 -0.58697415 33.625 4.125 C38.42180804 10.31035774 39.40272399 15.48108418 38.625 23.125 C35.46071666 34.71466429 25.59271258 42.47018419 16.5 49.5625 C13.11517896 51.40207665 11.4331858 51.46476379 7.625 51.125 C-3.51653983 46.06657827 -12.29615809 37.17005176 -17.33984375 26.11328125 C-19.47389847 19.95270818 -19.35692603 14.70402843 -16.6875 8.75 C-12.70353929 1.75687748 -7.75180825 -0.01773869 0 0 Z M-5.8125 13.1875 C-7.9264219 17.16167317 -7.68596297 18.82795472 -6.375 23.125 C-2.59888851 30.01329129 3.41978619 34.51401108 9.625 39.125 C17.35935947 35.17889823 23.399987 30.09729274 27.03515625 22.046875 C27.94606568 19.07887871 27.63611608 17.02353277 26.625 14.125 C25.56154948 12.14470318 25.56154948 12.14470318 23.625 11.125 C20.66753508 10.54154524 20.66753508 10.54154524 17.625 11.125 C16.985625 11.785 16.34625 12.445 15.6875 13.125 C13.625 15.125 13.625 15.125 10.125 15.625 C6.01933919 15.03847703 5.40528179 13.9949683 2.625 11.125 C-1.33566569 10.38237518 -2.71389341 10.56560211 -5.8125 13.1875 Z " fill="#000000" transform="translate(145.375,233.875)"/>
<path d="M0 0 C1.64742188 -0.05607422 1.64742188 -0.05607422 3.328125 -0.11328125 C11.43725344 -0.20185183 11.43725344 -0.20185183 15.453125 2.6484375 C18.90367734 7.88427562 18.43311016 13.16568844 18.4375 19.25 C18.44974609 20.13558594 18.46199219 21.02117187 18.47460938 21.93359375 C18.48547586 26.79453625 18.26884376 30.85562345 16.25 35.375 C15.59 36.035 14.93 36.695 14.25 37.375 C14.53191622 41.53326418 15.15786015 45.05522053 16.3125 49.0625 C17.25 52.375 17.25 52.375 17.25 57.375 C13.95 57.375 10.65 57.375 7.25 57.375 C5.01935854 51.0886468 3.41516489 44.94104684 2.25 38.375 C0.93 38.375 -0.39 38.375 -1.75 38.375 C-1.75 44.645 -1.75 50.915 -1.75 57.375 C-5.38 57.375 -9.01 57.375 -12.75 57.375 C-12.77255606 50.09078023 -12.79091801 42.80657941 -12.80181217 35.52233219 C-12.80703975 32.14028187 -12.81413511 28.7582566 -12.82543945 25.3762207 C-12.83834267 21.49170223 -12.84322924 17.60719403 -12.84765625 13.72265625 C-12.85281754 12.50288589 -12.85797882 11.28311554 -12.86329651 10.02638245 C-12.86337204 8.90529587 -12.86344757 7.78420929 -12.86352539 6.62915039 C-12.865746 5.63653702 -12.86796661 4.64392365 -12.87025452 3.62123108 C-12.56937711 -1.99885042 -4.28217394 0.05451842 0 0 Z M-1.75 10.375 C-1.75 16.315 -1.75 22.255 -1.75 28.375 C0.89 28.375 3.53 28.375 6.25 28.375 C8.07116003 26.55383997 7.3823508 24.06828236 7.38671875 21.6484375 C7.38285156 20.89820313 7.37898438 20.14796875 7.375 19.375 C7.37886719 18.62476563 7.38273437 17.87453125 7.38671875 17.1015625 C7.72675541 13.43893883 7.72675541 13.43893883 6.25 10.375 C3.61 10.375 0.97 10.375 -1.75 10.375 Z " fill="#000000" transform="translate(271.75,312.625)"/>
<path d="M0 0 C8.25 0 16.5 0 25 0 C30 5 30 5 30.63110352 8.05859375 C30.63001587 9.73115234 30.63001587 9.73115234 30.62890625 11.4375 C30.63180664 13.27441406 30.63180664 13.27441406 30.63476562 15.1484375 C30.61091797 16.41945313 30.58707031 17.69046875 30.5625 19 C30.57345703 20.27101563 30.58441406 21.54203125 30.59570312 22.8515625 C30.54213578 29.63675952 30.39667584 32.71655298 26 38 C26.37577854 40.81530858 26.8483856 42.92760965 27.75 45.5625 C28.9972372 49.50053596 30 52.80358585 30 57 C26.7 57 23.4 57 20 57 C17.4042476 50.7465965 16.0440365 44.68183363 15 38 C13.68 38 12.36 38 11 38 C11 44.27 11 50.54 11 57 C7.37 57 3.74 57 0 57 C0 38.19 0 19.38 0 0 Z M11 10 C11 15.94 11 21.88 11 28 C13.64 28 16.28 28 19 28 C20.98119355 26.01880645 20.18500411 22.26554936 20.1875 19.5625 C20.19974609 18.86833984 20.21199219 18.17417969 20.22460938 17.45898438 C20.22989842 15.63779099 20.12169207 13.8171308 20 12 C19.34 11.34 18.68 10.68 18 10 C15.69 10 13.38 10 11 10 Z " fill="#000000" transform="translate(223,313)"/>
<path d="M0 0 C7.92 0 15.84 0 24 0 C29.62643124 5.62643124 29.62643124 5.62643124 29.64697266 9.80273438 C29.66273346 10.7271936 29.67849426 11.65165283 29.69473267 12.60412598 C29.67955093 14.08398987 29.67955093 14.08398987 29.6640625 15.59375 C29.66884613 16.61803101 29.67362976 17.64231201 29.67855835 18.69763184 C29.68195514 20.85947204 29.67276828 23.02136375 29.65185547 25.18310547 C29.62508807 28.4891226 29.65161217 31.79174453 29.68359375 35.09765625 C29.68028961 37.20052832 29.67388331 39.30339827 29.6640625 41.40625 C29.67418365 42.39282593 29.68430481 43.37940186 29.69473267 44.39587402 C29.67897186 45.32033325 29.66321106 46.24479248 29.64697266 47.19726562 C29.64299469 48.00603149 29.63901672 48.81479736 29.63491821 49.64807129 C29 52 29 52 24 57 C16.08 57 8.16 57 0 57 C0 38.19 0 19.38 0 0 Z M11 10 C11 22.21 11 34.42 11 47 C13.31 47 15.62 47 18 47 C19.76072584 45.23927416 19.12834784 42.9210371 19.13894653 40.5760498 C19.1369223 39.81876587 19.13489807 39.06148193 19.1328125 38.28125 C19.13376923 37.50817505 19.13472595 36.7351001 19.13571167 35.93859863 C19.13639341 34.30102456 19.13453957 32.66344781 19.13037109 31.02587891 C19.12502271 28.51068079 19.13031626 25.99566127 19.13671875 23.48046875 C19.13605797 21.89322877 19.1347768 20.3059889 19.1328125 18.71875 C19.13483673 17.96146606 19.13686096 17.20418213 19.13894653 16.4239502 C19.44453684 12.91984437 19.44453684 12.91984437 18 10 C15.69 10 13.38 10 11 10 Z " fill="#000000" transform="translate(347,313)"/>
<path d="M0 0 C0.80308594 -0.03287109 1.60617187 -0.06574219 2.43359375 -0.09960938 C6.83259882 -0.13946856 8.57700976 0.00506268 12.14453125 2.8203125 C15.79655786 7.64646207 15.31629812 12.60290735 15.125 18.4375 C14.795 19.0975 14.465 19.7575 14.125 20.4375 C12.64593108 20.46439216 11.16672517 20.48384621 9.6875 20.5 C8.45193359 20.51740234 8.45193359 20.51740234 7.19140625 20.53515625 C5.125 20.4375 5.125 20.4375 4.125 19.4375 C3.67040142 16.78286879 3.42256762 14.11560862 3.125 11.4375 C1.145 11.4375 -0.835 11.4375 -2.875 11.4375 C-3.205 15.0675 -3.535 18.6975 -3.875 22.4375 C-1.3690625 23.0871875 -1.3690625 23.0871875 1.1875 23.75 C5.7215165 24.9902729 9.91936564 26.33468282 14.125 28.4375 C15.72819632 31.64389264 15.30952588 35.10661302 15.3125 38.625 C15.32474609 39.36814453 15.33699219 40.11128906 15.34960938 40.87695312 C15.36414 46.4034334 15.21417281 51.88985535 11.55859375 56.34765625 C7.80966633 58.02654991 4.24888931 57.91088376 0.1875 57.875 C-0.61107422 57.89498047 -1.40964844 57.91496094 -2.23242188 57.93554688 C-6.25091655 57.93221755 -8.38113703 57.73998304 -11.87890625 55.59765625 C-15.18949154 52.01496806 -14.98783194 48.93087037 -14.9375 44.25 C-14.92847656 43.16332031 -14.91945313 42.07664062 -14.91015625 40.95703125 C-14.89855469 40.12558594 -14.88695312 39.29414063 -14.875 38.4375 C-11.245 38.4375 -7.615 38.4375 -3.875 38.4375 C-3.545 41.0775 -3.215 43.7175 -2.875 46.4375 C-0.895 46.4375 1.085 46.4375 3.125 46.4375 C3.125 43.1375 3.125 39.8375 3.125 36.4375 C1.90941406 36.01597656 0.69382812 35.59445312 -0.55859375 35.16015625 C-2.14328192 34.60692192 -3.72791448 34.05352828 -5.3125 33.5 C-6.11494141 33.22220703 -6.91738281 32.94441406 -7.74414062 32.65820312 C-8.50791016 32.39072266 -9.27167969 32.12324219 -10.05859375 31.84765625 C-10.76556396 31.60152588 -11.47253418 31.35539551 -12.20092773 31.10180664 C-13.875 30.4375 -13.875 30.4375 -14.875 29.4375 C-15.15552624 25.86206556 -15.10684747 22.2726251 -15.125 18.6875 C-15.145625 17.68460938 -15.16625 16.68171875 -15.1875 15.6484375 C-15.23708151 6.30232267 -15.23708151 6.30232267 -11.875 2.4375 C-7.83877474 -0.25331684 -4.73986541 0.03391001 0 0 Z " fill="#000000" transform="translate(275.875,227.5625)"/>
<path d="M0 0 C3.3 0 6.6 0 10 0 C10.33 15.51 10.66 31.02 11 47 C14.465 46.505 14.465 46.505 18 46 C18.33 30.82 18.66 15.64 19 0 C22.3 0 25.6 0 29 0 C29.07418511 7.17160785 29.12861949 14.34299207 29.16479492 21.51489258 C29.17987654 23.95438528 29.20034469 26.3938509 29.22631836 28.83325195 C29.26272812 32.34072559 29.27973289 35.84784054 29.29296875 39.35546875 C29.30845261 40.44522507 29.32393646 41.53498138 29.33988953 42.65776062 C29.3420043 52.18368602 29.3420043 52.18368602 26 56 C22.49557863 57.75221068 18.54915569 57.31183537 14.6875 57.375 C13.40456055 57.43107422 13.40456055 57.43107422 12.09570312 57.48828125 C11.26361328 57.49988281 10.43152344 57.51148438 9.57421875 57.5234375 C8.43859497 57.5531665 8.43859497 57.5531665 7.2800293 57.58349609 C3.49848093 56.61573717 2.24034544 55.20261694 0 52 C-0.68972309 48.03998525 -0.58134789 44.14563029 -0.48828125 40.13671875 C-0.48120651 38.98959915 -0.47413177 37.84247955 -0.46684265 36.66059875 C-0.43888813 33.00223162 -0.37614286 29.34540337 -0.3125 25.6875 C-0.28741872 23.20510025 -0.26460526 20.72267648 -0.24414062 18.24023438 C-0.18905716 12.15956468 -0.10277287 6.08004311 0 0 Z " fill="#000000" transform="translate(226,228)"/>
<path d="M0 0 C4.29 0 8.58 0 13 0 C21.01184679 34.76756658 21.01184679 34.76756658 23.5 46.5 C23.73928223 47.61628784 23.73928223 47.61628784 23.98339844 48.75512695 C24.57074089 51.56941966 25 54.11506341 25 57 C21.37 57 17.74 57 14 57 C13.01 51.555 13.01 51.555 12 46 C8.04 46 4.08 46 0 46 C-0.33 49.63 -0.66 53.26 -1 57 C-4.63 57 -8.26 57 -12 57 C-11.302456 50.56951621 -10.10676752 44.32941677 -8.75 38.0078125 C-8.53182617 36.98066132 -8.31365234 35.95351013 -8.08886719 34.89523315 C-7.62988565 32.73840158 -7.16924591 30.58192227 -6.70703125 28.42578125 C-5.99797611 25.11555145 -5.29550708 21.80397127 -4.59375 18.4921875 C-4.14622337 16.39314597 -3.69832008 14.2941847 -3.25 12.1953125 C-3.03956055 11.20266388 -2.82912109 10.21001526 -2.61230469 9.18728638 C-2.41540039 8.27228363 -2.21849609 7.35728088 -2.015625 6.41455078 C-1.84321289 5.60817169 -1.67080078 4.8017926 -1.49316406 3.97097778 C-1 2 -1 2 0 0 Z M6 16 C5.49432271 18.56149628 4.99529868 21.12399465 4.5 23.6875 C4.35691406 24.40873047 4.21382812 25.12996094 4.06640625 25.87304688 C3.34428113 29.63841359 2.8175024 33.14473813 3 37 C5.31 37 7.62 37 10 37 C9.41523944 29.90593106 8.36766005 22.98436101 7 16 C6.67 16 6.34 16 6 16 Z " fill="#000000" transform="translate(193,313)"/>
<path d="M0 0 C9.9 0 19.8 0 30 0 C30 3.3 30 6.6 30 10 C23.73 10 17.46 10 11 10 C11 14.29 11 18.58 11 23 C15.62 23 20.24 23 25 23 C25 26.63 25 30.26 25 34 C20.38 34 15.76 34 11 34 C11 38.29 11 42.58 11 47 C12.28777344 46.98839844 13.57554687 46.97679687 14.90234375 46.96484375 C16.58072772 46.9554673 18.25911326 46.94636695 19.9375 46.9375 C21.21270508 46.92493164 21.21270508 46.92493164 22.51367188 46.91210938 C23.32255859 46.90888672 24.13144531 46.90566406 24.96484375 46.90234375 C25.7137085 46.89710693 26.46257324 46.89187012 27.23413086 46.88647461 C29 47 29 47 30 48 C30 50.97 30 53.94 30 57 C20.1 57 10.2 57 0 57 C0 38.19 0 19.38 0 0 Z " fill="#000000" transform="translate(312,313)"/>
<path d="M0 0 C3.63 0 7.26 0 11 0 C11.04946586 6.88678949 11.08575109 13.77347537 11.10986328 20.66040039 C11.11991609 23.00286663 11.1335603 25.34532035 11.15087891 27.68774414 C11.17515852 31.05618383 11.18649042 34.42445747 11.1953125 37.79296875 C11.20563507 38.83897751 11.21595764 39.88498627 11.22659302 40.96269226 C11.22674408 41.94333145 11.22689514 42.92397064 11.22705078 43.93432617 C11.231492 44.79370285 11.23593323 45.65307953 11.24050903 46.53849792 C10.88433966 50.18373169 9.85451635 53.02614969 7.43359375 55.78515625 C3.70582397 57.64604935 0.17192582 57.47380818 -3.9375 57.4375 C-4.73607422 57.45748047 -5.53464844 57.47746094 -6.35742188 57.49804688 C-10.37591655 57.49471755 -12.50613703 57.30248304 -16.00390625 55.16015625 C-19.31449154 51.57746806 -19.11283194 48.49337037 -19.0625 43.8125 C-19.05347656 42.72582031 -19.04445312 41.63914062 -19.03515625 40.51953125 C-19.02355469 39.68808594 -19.01195312 38.85664063 -19 38 C-15.37 38 -11.74 38 -8 38 C-7.67 40.64 -7.34 43.28 -7 46 C-5.02 46 -3.04 46 -1 46 C-0.67 30.82 -0.34 15.64 0 0 Z " fill="#000000" transform="translate(209,228)"/>
<path d="M0 0 C9.57 0 19.14 0 29 0 C29 3.3 29 6.6 29 10 C26.03 10 23.06 10 20 10 C20 25.51 20 41.02 20 57 C16.37 57 12.74 57 9 57 C9 41.49 9 25.98 9 10 C6.03 10 3.06 10 0 10 C0 6.7 0 3.4 0 0 Z " fill="#000000" transform="translate(294,228)"/>
<path d="M0 0 C3.3 0 6.6 0 10 0 C10 18.81 10 37.62 10 57 C6.7 57 3.4 57 0 57 C0 38.19 0 19.38 0 0 Z " fill="#000000" transform="translate(296,313)"/>
<path d="M0 0 C1.16343227 2.32686453 1.19895988 3.84721413 1.25 6.4375 C1.28867187 7.61119141 1.28867187 7.61119141 1.328125 8.80859375 C1 11 1 11 -0.32421875 12.765625 C-2.87564409 14.64499658 -4.92981665 14.32661525 -8 14 C-10.58620253 11.41379747 -10.35629171 10.15954974 -10.4375 6.5625 C-10.34194325 1.36148287 -10.34194325 1.36148287 -7.8125 -1.3125 C-4.39519922 -2.14784019 -3.01018168 -1.75593931 0 0 Z " fill="#000000" transform="translate(433,415)"/>
<path d="M0 0 C1.73849628 1.73849628 1.17216296 4.0786637 1.1875 6.4375 C1.20167969 7.42621094 1.21585938 8.41492188 1.23046875 9.43359375 C1 12 1 12 -1 14 C-6.24643465 14.55813135 -6.24643465 14.55813135 -8.671875 12.76171875 C-10.35447177 10.52980362 -10.37250562 9.26949033 -10.3125 6.5 C-10.30863281 5.7265625 -10.30476563 4.953125 -10.30078125 4.15625 C-10 2 -10 2 -8 -1 C-4.36442231 -2.21185923 -3.36216382 -1.59260392 0 0 Z " fill="#000000" transform="translate(88,415)"/>
<path d="M0 0 C3.0625 0.3125 3.0625 0.3125 4.73046875 1.55078125 C6.41135096 3.77388353 6.46513934 5.04856622 6.4375 7.8125 C6.44523437 8.5859375 6.45296875 9.359375 6.4609375 10.15625 C5.96869206 12.82016652 5.22005011 13.71075905 3.0625 15.3125 C0 15.625 0 15.625 -2.9375 15.3125 C-4.9375 13.3125 -4.9375 13.3125 -5.203125 10.78125 C-5.19796875 9.8015625 -5.1928125 8.821875 -5.1875 7.8125 C-5.19265625 6.8328125 -5.1978125 5.853125 -5.203125 4.84375 C-4.8037637 1.03807174 -3.74156383 0.39803871 0 0 Z " fill="#000000" transform="translate(427.9375,167.6875)"/>
<path d="M0 0 C2 2 2 2 2.265625 4.53125 C2.26046875 5.5109375 2.2553125 6.490625 2.25 7.5 C2.25515625 8.4796875 2.2603125 9.459375 2.265625 10.46875 C2 13 2 13 0 15 C-5.24797464 15.55829517 -5.24797464 15.55829517 -7.66796875 13.76171875 C-9.34885096 11.53861647 -9.40263934 10.26393378 -9.375 7.5 C-9.38273437 6.7265625 -9.39046875 5.953125 -9.3984375 5.15625 C-8.4113257 -0.18576682 -4.83641639 -0.51451238 0 0 Z " fill="#000000" transform="translate(87,168)"/>
</svg>
